# xmcd
#
# Track frame offsets:
#	150
#	15461
#	30068
#	42565
#	57196
#	69729
#	89346
#	107141
#	122671
#
# Disc length: 1855 seconds
#
# Revision: 0
# Processed by: cddbd v1.4PL0 Copyright (c) Steve Scherf et al.
# Submitted via: dBpowerAMP V4.0
#
DISCID=6d073d09
DTITLE=Pam Tillis - Super Hits - 1999
DYEAR=1900
DGENRE=Country
TTITLE0=Deep Down
TTITLE1=Cleopatra, queen Of Denial
TTITLE2=When You Walk In The Room
TTITLE3=Don't Tell Me What To Do
TTITLE4=I Was Blown Away
TTITLE5=Rough And Tumble Heart
TTITLE6=Betty's Got A Bass Boat
TTITLE7=I've Seen Enough To Know
TTITLE8=We've Tried Everything Else
EXTD=
EXTT0=
EXTT1=
EXTT2=
EXTT3=
EXTT4=
EXTT5=
EXTT6=
EXTT7=
EXTT8=
PLAYORDER=
